<?xml version="1.0" encoding="UTF-8" standalone="no"?>
<svg
   xmlns:dc="http://purl.org/dc/elements/1.1/"
   xmlns:cc="http://creativecommons.org/ns#"
   xmlns:rdf="http://www.w3.org/1999/02/22-rdf-syntax-ns#"
   xmlns:svg="http://www.w3.org/2000/svg"
   xmlns="http://www.w3.org/2000/svg"
   xmlns:sodipodi="http://sodipodi.sourceforge.net/DTD/sodipodi-0.dtd"
   xmlns:inkscape="http://www.inkscape.org/namespaces/inkscape"
   inkscape:version="1.0 (4035a4fb49, 2020-05-01)"
   sodipodi:docname="bell.svg"
   id="svg4"
   version="1.1"
   height="96px"
   width="96px"
   viewBox="0 0 48 48">
  <metadata
     id="metadata10">
    <rdf:RDF>
      <cc:Work
         rdf:about="">
        <dc:format>image/svg+xml</dc:format>
        <dc:type
           rdf:resource="http://purl.org/dc/dcmitype/StillImage" />
      </cc:Work>
    </rdf:RDF>
  </metadata>
  <defs
     id="defs8" />
  <sodipodi:namedview
     inkscape:current-layer="svg4"
     inkscape:window-maximized="1"
     inkscape:window-y="-8"
     inkscape:window-x="1992"
     inkscape:cy="48"
     inkscape:cx="48"
     inkscape:zoom="9.2708333"
     showgrid="false"
     id="namedview6"
     inkscape:window-height="1057"
     inkscape:window-width="1840"
     inkscape:pageshadow="2"
     inkscape:pageopacity="0"
     guidetolerance="10"
     gridtolerance="10"
     objecttolerance="10"
     borderopacity="1"
     bordercolor="#666666"
     pagecolor="#ffffff" />
  <path
     id="path2"
     d="M 23.277344 4.0175781 C 15.193866 4.3983176 9 11.343391 9 19.380859 L 9 26.648438 L 6.3496094 31.980469 A 1.50015 1.50015 0 0 0 6.3359375 32.009766 C 5.2696804 34.277268 6.9957076 37 9.5019531 37 L 18 37 C 18 40.295865 20.704135 43 24 43 C 27.295865 43 30 40.295865 30 37 L 38.496094 37 C 41.002339 37 42.730582 34.277829 41.664062 32.009766 A 1.50015 1.50015 0 0 0 41.650391 31.980469 L 39 26.648438 L 39 19 C 39 10.493798 31.863289 3.6133643 23.277344 4.0175781 z M 23.417969 7.0136719 C 30.338024 6.6878857 36 12.162202 36 19 L 36 27 A 1.50015 1.50015 0 0 0 36.15625 27.667969 L 38.949219 33.289062 C 39.128826 33.674017 38.921017 34 38.496094 34 L 9.5019531 34 C 9.077027 34 8.8709034 33.674574 9.0507812 33.289062 C 9.0507812 33.289062 9.0507812 33.287109 9.0507812 33.287109 L 11.84375 27.667969 A 1.50015 1.50015 0 0 0 12 27 L 12 19.380859 C 12 12.880328 16.979446 7.3169324 23.417969 7.0136719 z M 21 37 L 27 37 C 27 38.674135 25.674135 40 24 40 C 22.325865 40 21 38.674135 21 37 z" />
  <path
     transform="scale(0.5)"
     id="path12"
     d="M 46.485053,85.849946 C 45.460748,85.71747 43.979891,85.26921 42.950281,84.779959 39.144654,82.971597 36.603507,79.382046 36.126227,75.140494 l -0.127689,-1.134763 -9.019494,-0.03827 c -10.056371,-0.04267 -9.496707,-0.0017 -11.068932,-0.810955 -1.142105,-0.587887 -2.487691,-1.979913 -3.056222,-3.161701 -0.773039,-1.606891 -0.959158,-3.404842 -0.50808,-4.908166 0.09065,-0.302125 1.402966,-3.061213 2.916249,-6.131306 l 2.751424,-5.581988 0.0016,-7.459705 c 0.002,-9.437312 0.102276,-11.018311 0.910773,-14.363078 1.093907,-4.525507 3.072701,-8.58742 5.964129,-12.242697 1.170838,-1.480146 3.861431,-4.106012 5.366195,-5.237099 4.215486,-3.16866 8.559447,-4.9732881 13.914607,-5.7805964 1.492216,-0.2249568 6.461442,-0.1950988 7.982022,0.04796 7.559138,1.2083014 14.023747,4.8156884 18.788442,10.4843424 2.750144,3.271903 4.935064,7.491549 6.017839,11.622003 0.910618,3.473724 1.025007,5.155228 1.02636,15.087176 l 0.0011,7.832776 2.748456,5.576455 c 1.511652,3.06705 2.823964,5.828143 2.916249,6.135764 0.458326,1.527758 0.270395,3.322027 -0.516139,4.927848 -0.613585,1.252723 -1.926679,2.595564 -3.099128,3.16934 -1.629818,0.797604 -0.99282,0.751692 -11.014999,0.793906 l -9.019495,0.03799 -0.127688,1.134763 c -0.756938,6.726843 -6.801061,11.561454 -13.38872,10.709452 z m 3.501833,-6.129597 c 2.236035,-0.786901 3.772297,-2.719785 4.014302,-5.050686 l 0.06999,-0.674157 H 48.00047 41.929759 l 0.07064,0.689509 c 0.2698,2.633402 2.258209,4.768332 4.920947,5.283561 0.622718,0.120493 2.434721,-0.02623 3.065538,-0.248227 z M 77.834061,67.706345 c 0.143176,-0.166454 0.26231,-0.433421 0.26474,-0.593258 0.0026,-0.170903 -1.230404,-2.770595 -2.993258,-6.311057 l -2.997678,-6.020441 -0.06281,-9.673941 C 71.976416,34.535988 71.989286,34.762794 71.30245,32.021256 69.35085,24.23135 63.509349,17.893089 55.849331,15.254005 48.864142,12.847419 41.09068,13.819903 35.049537,17.856123 c -5.264414,3.517272 -8.973522,8.912303 -10.453195,15.204551 -0.572731,2.435519 -0.576029,2.499299 -0.642215,12.422765 l -0.06199,9.294673 -2.99687,6.022181 c -1.648278,3.312198 -2.995244,6.144862 -2.993258,6.294807 0.0045,0.337193 0.274275,0.736804 0.581445,0.861173 0.12907,0.05226 13.228062,0.08456 29.660722,0.07315 l 29.429567,-0.02044 z"
     style="fill:#ffffff;stroke-width:0.107865" />
</svg>
