<?xml version="1.0" encoding="UTF-8"?>
<svg version="1.1" xmlns="http://www.w3.org/2000/svg" width="232" height="196">
<path d="M0 0 C5.17165404 0.50396534 8.87109223 1.66709634 13.4140625 4.16796875 C13.99159271 4.48526443 14.56912292 4.80256012 15.16415405 5.12947083 C16.37549197 5.79903242 17.58377767 6.47414351 18.7890625 7.15454102 C20.61843602 8.18380689 22.46028928 9.18741526 24.3046875 10.18945312 C25.48781519 10.84745736 26.67013555 11.50691575 27.8515625 12.16796875 C29.44218506 13.05391724 29.44218506 13.05391724 31.06494141 13.95776367 C37.33114836 18.31783863 37.33114836 18.31783863 39 22 C39.75663235 26.78289704 39.7473587 31.5522262 39.7421875 36.3828125 C39.75787362 37.80282888 39.77557842 39.22282425 39.79519653 40.64279175 C39.83140391 43.61677093 39.85183065 46.5902648 39.859375 49.56445312 C39.86898729 53.34350008 39.90431952 57.12168715 39.95004082 60.90045357 C39.99328471 64.54033876 40.02494264 68.18029532 40.0546875 71.8203125 C40.06393061 72.83832129 40.06393061 72.83832129 40.07336044 73.8768959 C40.12513677 80.48766825 40.0882423 87.09558716 39.74658203 93.69873047 C39.70066925 94.62910126 39.65475647 95.55947205 39.60745239 96.51803589 C38.82273523 99.72427865 37.57729353 100.98351098 35 103 C32.29692508 103.38618041 30.01005632 103.5387449 27.3125 103.49609375 C26.57298096 103.49754898 25.83346191 103.49900421 25.0715332 103.50050354 C23.51151582 103.49884714 21.95148166 103.48731465 20.39160156 103.46655273 C18.00775535 103.43759421 15.62613403 103.44594794 13.2421875 103.45898438 C11.72394756 103.45274649 10.20571462 103.44435514 8.6875 103.43359375 C7.97698486 103.43652939 7.26646973 103.43946503 6.53442383 103.44248962 C3.73353856 103.3892652 1.39109929 103.17107884 -1.18812561 102.04284668 C-4.12477968 98.73183679 -3.54866879 95.18770451 -3.50170898 90.91040039 C-3.50981346 89.51486687 -3.50981346 89.51486687 -3.51808167 88.09114075 C-3.53060905 85.00965757 -3.51404984 81.92910149 -3.49609375 78.84765625 C-3.49624866 76.70918224 -3.49773626 74.57070794 -3.50050354 72.43223572 C-3.50188938 67.94729218 -3.48929943 63.46266771 -3.46655273 58.9777832 C-3.43818492 53.22623355 -3.44089842 47.47521497 -3.45364285 41.72362614 C-3.46059563 37.30642658 -3.45281499 32.88934993 -3.44038582 28.47216606 C-3.43586623 26.35145985 -3.43553894 24.23074046 -3.43945122 22.11003304 C-3.44235902 19.14607806 -3.4258761 16.1828565 -3.40405273 13.21899414 C-3.40855438 12.34041748 -3.41305603 11.46184082 -3.41769409 10.55664062 C-3.34453835 4.58193303 -3.34453835 4.58193303 -1.4747467 1.42381287 C-0.98808029 0.95395462 -0.50141388 0.48409637 0 0 Z M9 17 C7.83742323 20.66045012 7.91640965 24.05819626 7.97827148 27.87988281 C7.98787903 28.56321686 7.99748657 29.2465509 8.00738525 29.95059204 C8.04027619 32.20154447 8.08064583 34.45229675 8.12109375 36.703125 C8.14540457 38.26681825 8.16924764 39.83051884 8.19264221 41.39422607 C8.2553875 45.50423558 8.32448106 49.61411474 8.39489746 53.72399902 C8.46566735 57.92010578 8.53043248 62.11630474 8.59570312 66.3125 C8.72459225 74.54176879 8.86018814 82.77090957 9 91 C11.97922593 91.02683987 14.95821295 91.04676037 17.9375 91.0625 C18.78763672 91.07087891 19.63777344 91.07925781 20.51367188 91.08789062 C21.32255859 91.09111328 22.13144531 91.09433594 22.96484375 91.09765625 C23.7137085 91.10289307 24.46257324 91.10812988 25.23413086 91.11352539 C27.02667739 91.19341752 27.02667739 91.19341752 28 90 C28.12012606 88.1248139 28.17021138 86.24510415 28.19287109 84.36621094 C28.20893402 83.16115906 28.22499695 81.95610718 28.24154663 80.71453857 C28.28582165 75.18876221 28.3275187 69.66311859 28.35009766 64.13720703 C28.36672095 60.49741423 28.41147065 56.85853132 28.4624691 53.21908188 C28.49616769 50.41889434 28.50767797 47.61892162 28.51332474 44.81855011 C28.52329197 42.82596769 28.55753334 40.8335545 28.59213257 38.84124756 C28.71230255 31.83475509 28.71230255 31.83475509 25.6574707 25.76391602 C22.73809051 23.82615562 19.85785614 21.92392046 16.8125 20.1875 C15.76707031 19.58292969 14.72164062 18.97835937 13.64453125 18.35546875 C11.1986411 16.84795672 11.1986411 16.84795672 9 17 Z " fill="#BEBCBB" transform="translate(124,41)"/>
<path d="M0 0 C1.71350991 3.42701981 1.12858983 7.36099803 1.11352539 11.13134766 C1.11367142 12.07773605 1.11381744 13.02412445 1.1139679 13.99919128 C1.11326942 17.13750475 1.10548002 20.27575937 1.09765625 23.4140625 C1.09579184 25.58596769 1.09436805 27.75787329 1.09336853 29.92977905 C1.08954516 35.65414587 1.07971639 41.37848742 1.06866455 47.10284424 C1.05844657 52.94095518 1.05387008 58.7790702 1.04882812 64.6171875 C1.03809398 76.07813611 1.0210197 87.53906596 1 99 C-2.99165106 101.29982545 -5.49536847 100.93492352 -10 100 C-12.0420273 97.9579727 -11.17500037 93.67983528 -11.18945312 90.87182617 C-11.19774643 90.01979111 -11.20603973 89.16775604 -11.21458435 88.28990173 C-11.23202687 86.43305031 -11.24718206 84.57617636 -11.26036072 82.71928978 C-11.28132958 79.78181999 -11.30835892 76.84446269 -11.33703613 73.90705872 C-11.39684665 67.66724881 -11.44891713 61.42738664 -11.5 55.1875 C-11.55920208 47.96914435 -11.62154412 40.75084351 -11.69187927 33.53258705 C-11.71846435 30.63658516 -11.73927644 27.74057788 -11.7598877 24.8445282 C-11.77649353 23.06846863 -11.79336561 21.29241152 -11.81054688 19.51635742 C-11.81473129 18.70944458 -11.81891571 17.90253174 -11.82322693 17.07116699 C-11.86269376 13.54956819 -12.0561745 10.38938424 -13 7 C-12.01 6.67 -11.02 6.34 -10 6 C-10 5.34 -10 4.68 -10 4 C-9.34 4 -8.68 4 -8 4 C-7.67 3.01 -7.34 2.02 -7 1 C-4.53721199 -0.231394 -2.7204945 -0.07159196 0 0 Z " fill="#E0DEDD" transform="translate(71,42)"/>
<path d="M0 0 C1.5801273 2.80619394 2.25043725 4.82047461 2.25396729 8.03616333 C2.26242676 9.22647156 2.26242676 9.22647156 2.27105713 10.44082642 C2.26700867 11.30227264 2.26296021 12.16371887 2.25878906 13.05126953 C2.2622937 13.96547668 2.26579834 14.87968384 2.26940918 15.82159424 C2.27820889 18.84207765 2.27238448 21.86232673 2.265625 24.8828125 C2.26697192 26.97980799 2.26891268 29.07680318 2.27142334 31.17379761 C2.27437202 35.56690445 2.27008426 39.95992995 2.26074219 44.35302734 C2.24933378 49.99366777 2.25591756 55.63411817 2.26788712 61.27475166 C2.27510061 65.60347944 2.27282038 69.93216185 2.26763153 74.26089096 C2.26629435 76.34138893 2.26794514 78.42189097 2.27259064 80.50238419 C2.277649 83.40420766 2.269956 86.30571938 2.25878906 89.20751953 C2.26283752 90.07301422 2.26688599 90.93850891 2.27105713 91.83023071 C2.22853075 97.77146925 2.22853075 97.77146925 0 100 C-2.68839385 100.26991906 -5.29141936 100.08737357 -8 100 C-10.11043584 95.70127164 -10.27906378 91.79027424 -10.24291992 87.09545898 C-10.24481827 86.31421158 -10.24671661 85.53296417 -10.24867249 84.7280426 C-10.25237 82.15062345 -10.24168346 79.57348781 -10.23046875 76.99609375 C-10.22927534 75.19352756 -10.22882413 73.39096073 -10.2290802 71.58839417 C-10.22751664 67.80815744 -10.21924196 64.02801558 -10.20581055 60.24780273 C-10.18890643 55.43215319 -10.184994 50.61660862 -10.18575573 45.80093288 C-10.1854819 42.07486491 -10.17996542 38.34881932 -10.17275429 34.62275887 C-10.16959808 32.84917431 -10.16760744 31.07558725 -10.16686058 29.30200005 C-10.14700895 6.78066955 -10.14700895 6.78066955 -9 1 C-6.04335481 -0.4783226 -3.25770263 -0.06032783 0 0 Z " fill="#9B9999" transform="translate(101,42)"/>
<path d="M0 0 C5.17165404 0.50396534 8.87109223 1.66709634 13.4140625 4.16796875 C13.99159271 4.48526443 14.56912292 4.80256012 15.16415405 5.12947083 C16.37549197 5.79903242 17.58377767 6.47414351 18.7890625 7.15454102 C20.61843602 8.18380689 22.46028928 9.18741526 24.3046875 10.18945312 C25.48781519 10.84745736 26.67013555 11.50691575 27.8515625 12.16796875 C29.44218506 13.05391724 29.44218506 13.05391724 31.06494141 13.95776367 C37.33114836 18.31783863 37.33114836 18.31783863 39 22 C39.75663235 26.78289704 39.7473587 31.5522262 39.7421875 36.3828125 C39.75787362 37.80282888 39.77557842 39.22282425 39.79519653 40.64279175 C39.83140391 43.61677093 39.85183065 46.5902648 39.859375 49.56445312 C39.86898729 53.34350008 39.90431952 57.12168715 39.95004082 60.90045357 C39.99328471 64.54033876 40.02494264 68.18029532 40.0546875 71.8203125 C40.06393061 72.83832129 40.06393061 72.83832129 40.07336044 73.8768959 C40.12513677 80.48766825 40.0882423 87.09558716 39.74658203 93.69873047 C39.70066925 94.62910126 39.65475647 95.55947205 39.60745239 96.51803589 C38.82273523 99.72427865 37.57729353 100.98351098 35 103 C32.29692508 103.38618041 30.01005632 103.5387449 27.3125 103.49609375 C26.57298096 103.49754898 25.83346191 103.49900421 25.0715332 103.50050354 C23.51151582 103.49884714 21.95148166 103.48731465 20.39160156 103.46655273 C18.00775535 103.43759421 15.62613403 103.44594794 13.2421875 103.45898438 C11.72394756 103.45274649 10.20571462 103.44435514 8.6875 103.43359375 C7.97698486 103.43652939 7.26646973 103.43946503 6.53442383 103.44248962 C3.73353856 103.3892652 1.39109929 103.17107884 -1.18812561 102.04284668 C-4.12477968 98.73183679 -3.54866879 95.18770451 -3.50170898 90.91040039 C-3.50981346 89.51486687 -3.50981346 89.51486687 -3.51808167 88.09114075 C-3.53060905 85.00965757 -3.51404984 81.92910149 -3.49609375 78.84765625 C-3.49624866 76.70918224 -3.49773626 74.57070794 -3.50050354 72.43223572 C-3.50188938 67.94729218 -3.48929943 63.46266771 -3.46655273 58.9777832 C-3.43818492 53.22623355 -3.44089842 47.47521497 -3.45364285 41.72362614 C-3.46059563 37.30642658 -3.45281499 32.88934993 -3.44038582 28.47216606 C-3.43586623 26.35145985 -3.43553894 24.23074046 -3.43945122 22.11003304 C-3.44235902 19.14607806 -3.4258761 16.1828565 -3.40405273 13.21899414 C-3.40855438 12.34041748 -3.41305603 11.46184082 -3.41769409 10.55664062 C-3.34453835 4.58193303 -3.34453835 4.58193303 -1.4747467 1.42381287 C-0.98808029 0.95395462 -0.50141388 0.48409637 0 0 Z M1 1 C-1.65644492 4.98466739 -1.26493591 8.43778082 -1.22705078 13.0612793 C-1.22734283 13.98830658 -1.22763489 14.91533386 -1.22793579 15.87045288 C-1.22654104 18.93846963 -1.21097293 22.00624435 -1.1953125 25.07421875 C-1.19158289 27.19985318 -1.18873567 29.32548933 -1.18673706 31.4511261 C-1.17909654 37.04892717 -1.1594444 42.64662465 -1.1373291 48.24438477 C-1.11687973 53.95522663 -1.10773729 59.66608521 -1.09765625 65.37695312 C-1.07619895 76.58468096 -1.0420579 87.79233187 -1 99 C1.07940899 99.01355522 3.15884357 99.02322294 5.23828125 99.03125 C6.39626221 99.03705078 7.55424316 99.04285156 8.74731445 99.04882812 C11.29773414 99.01054216 13.67227047 98.8679098 16.1875 98.5 C20.81812267 97.89270522 25.33829579 97.91402595 30 98 C30 98.66 30 99.32 30 100 C31.32 100 32.64 100 34 100 C34 99.34 34 98.68 34 98 C34.99 98 35.98 98 37 98 C37 72.59 37 47.18 37 21 C33.22874007 19.6125412 33.22874007 19.6125412 30.78411865 21.02607727 C28.23232471 23.84934469 28.48199318 25.81042275 28.45410156 29.58276367 C28.44376389 30.24644455 28.43342621 30.91012543 28.42277527 31.59391785 C28.39329978 33.78551441 28.39184723 35.97618938 28.390625 38.16796875 C28.37564639 39.68827582 28.35891991 41.2085666 28.34051514 42.72883606 C28.29679276 46.72863504 28.27683198 50.72821452 28.26177979 54.72821045 C28.24222609 58.81047573 28.20025424 62.89250334 28.16015625 66.97460938 C28.0848011 74.98303991 28.03661409 82.99129853 28 91 C21.4 91.33 14.8 91.66 8 92 C7.67 65.93 7.34 39.86 7 13 C7.99 13 8.98 13 10 13 C9.67 11.68 9.34 10.36 9 9 C8.34 9 7.68 9 7 9 C7.0928125 7.576875 7.0928125 7.576875 7.1875 6.125 C7.125625 5.09375 7.06375 4.0625 7 3 C4.18490007 0.7226499 4.18490007 0.7226499 1 1 Z M9 17 C7.83742323 20.66045012 7.91640965 24.05819626 7.97827148 27.87988281 C7.98787903 28.56321686 7.99748657 29.2465509 8.00738525 29.95059204 C8.04027619 32.20154447 8.08064583 34.45229675 8.12109375 36.703125 C8.14540457 38.26681825 8.16924764 39.83051884 8.19264221 41.39422607 C8.2553875 45.50423558 8.32448106 49.61411474 8.39489746 53.72399902 C8.46566735 57.92010578 8.53043248 62.11630474 8.59570312 66.3125 C8.72459225 74.54176879 8.86018814 82.77090957 9 91 C11.97922593 91.02683987 14.95821295 91.04676037 17.9375 91.0625 C18.78763672 91.07087891 19.63777344 91.07925781 20.51367188 91.08789062 C21.32255859 91.09111328 22.13144531 91.09433594 22.96484375 91.09765625 C23.7137085 91.10289307 24.46257324 91.10812988 25.23413086 91.11352539 C27.02667739 91.19341752 27.02667739 91.19341752 28 90 C28.12012606 88.1248139 28.17021138 86.24510415 28.19287109 84.36621094 C28.20893402 83.16115906 28.22499695 81.95610718 28.24154663 80.71453857 C28.28582165 75.18876221 28.3275187 69.66311859 28.35009766 64.13720703 C28.36672095 60.49741423 28.41147065 56.85853132 28.4624691 53.21908188 C28.49616769 50.41889434 28.50767797 47.61892162 28.51332474 44.81855011 C28.52329197 42.82596769 28.55753334 40.8335545 28.59213257 38.84124756 C28.71230255 31.83475509 28.71230255 31.83475509 25.6574707 25.76391602 C22.73809051 23.82615562 19.85785614 21.92392046 16.8125 20.1875 C15.76707031 19.58292969 14.72164062 18.97835937 13.64453125 18.35546875 C11.1986411 16.84795672 11.1986411 16.84795672 9 17 Z " fill="#7A7978" transform="translate(124,41)"/>
<path d="M0 0 C0.33 0 0.66 0 1 0 C1 31.68 1 63.36 1 96 C3.31 96 5.62 96 8 96 C8 64.32 8 32.64 8 0 C8.33 0 8.66 0 9 0 C9 32.01 9 64.02 9 97 C4.46184454 99.26907773 2.82830058 99.00210012 -2 98 C-4.0420273 95.9579727 -3.17500037 91.67983528 -3.18945312 88.87182617 C-3.19774643 88.01979111 -3.20603973 87.16775604 -3.21458435 86.28990173 C-3.23202687 84.43305031 -3.24718206 82.57617636 -3.26036072 80.71928978 C-3.28132958 77.78181999 -3.30835892 74.84446269 -3.33703613 71.90705872 C-3.39684665 65.66724881 -3.44891713 59.42738664 -3.5 53.1875 C-3.55920208 45.96914435 -3.62154412 38.75084351 -3.69187927 31.53258705 C-3.71846435 28.63658516 -3.73927644 25.74057788 -3.7598877 22.8445282 C-3.77649353 21.06846863 -3.79336561 19.29241152 -3.81054688 17.51635742 C-3.81473129 16.70944458 -3.81891571 15.90253174 -3.82322693 15.07116699 C-3.86269376 11.54956819 -4.0561745 8.38938424 -5 5 C-4.01 4.67 -3.02 4.34 -2 4 C-2 3.34 -2 2.68 -2 2 C-1.34 2 -0.68 2 0 2 C0 1.34 0 0.68 0 0 Z " fill="#706F6F" transform="translate(63,44)"/>
<path d="M0 0 C5.70709064 0.46588495 9.15939723 1.93757784 14 5 C13.01 5.495 13.01 5.495 12 6 C10.16015625 5.22265625 10.16015625 5.22265625 8.0625 4.0625 C5.31063302 2.5451154 4.22211537 2 1 2 C-0.69091569 5.38183138 -0.18101108 9.22584467 -0.20532227 12.94775391 C-0.21522186 13.87463516 -0.22512146 14.80151642 -0.23532104 15.75648499 C-0.2669882 18.82981789 -0.29171408 21.90316628 -0.31640625 24.9765625 C-0.33697127 27.10363168 -0.35796762 29.23069674 -0.37937927 31.35775757 C-0.43464658 36.96371116 -0.4840353 42.56970192 -0.53222656 48.17572021 C-0.5824076 53.89322223 -0.63811138 59.6106701 -0.69335938 65.328125 C-0.80099793 76.5520371 -0.90243022 87.77599617 -1 99 C-0.12432373 98.90126587 -0.12432373 98.90126587 0.76904297 98.80053711 C3.46996891 98.50218211 6.1723491 98.21978497 8.875 97.9375 C9.7928125 97.83373047 10.710625 97.72996094 11.65625 97.62304688 C17.92911832 96.9825075 23.7560057 97.12509403 30 98 C30 98.66 30 99.32 30 100 C31.32 100 32.64 100 34 100 C34 99.34 34 98.68 34 98 C34.99 97.67 35.98 97.34 37 97 C37.33 72.25 37.66 47.5 38 22 C38.33 22 38.66 22 39 22 C39.15480447 30.26758386 39.30296738 38.5352502 39.4429636 46.80309677 C39.50819159 50.64337368 39.57559227 54.48358531 39.64819336 58.32373047 C39.71834886 62.03895578 39.78249029 65.75424324 39.84269524 69.46964264 C39.86652289 70.87763399 39.89241285 72.2855922 39.92053413 73.69350433 C40.05265971 80.37136498 40.10313051 87.03983356 39.75756836 93.71191406 C39.71006943 94.64038147 39.6625705 95.56884888 39.6136322 96.52545166 C38.82081044 99.72260425 37.57140568 100.98650625 35 103 C32.29692508 103.38618041 30.01005632 103.5387449 27.3125 103.49609375 C26.57298096 103.49754898 25.83346191 103.49900421 25.0715332 103.50050354 C23.51151582 103.49884714 21.95148166 103.48731465 20.39160156 103.46655273 C18.00775535 103.43759421 15.62613403 103.44594794 13.2421875 103.45898438 C11.72394756 103.45274649 10.20571462 103.44435514 8.6875 103.43359375 C7.97698486 103.43652939 7.26646973 103.43946503 6.53442383 103.44248962 C3.73353856 103.3892652 1.39109929 103.17107884 -1.18812561 102.04284668 C-4.12477968 98.73183679 -3.54866879 95.18770451 -3.50170898 90.91040039 C-3.50981346 89.51486687 -3.50981346 89.51486687 -3.51808167 88.09114075 C-3.53060905 85.00965757 -3.51404984 81.92910149 -3.49609375 78.84765625 C-3.49624866 76.70918224 -3.49773626 74.57070794 -3.50050354 72.43223572 C-3.50188938 67.94729218 -3.48929943 63.46266771 -3.46655273 58.9777832 C-3.43818492 53.22623355 -3.44089842 47.47521497 -3.45364285 41.72362614 C-3.46059563 37.30642658 -3.45281499 32.88934993 -3.44038582 28.47216606 C-3.43586623 26.35145985 -3.43553894 24.23074046 -3.43945122 22.11003304 C-3.44235902 19.14607806 -3.4258761 16.1828565 -3.40405273 13.21899414 C-3.40855438 12.34041748 -3.41305603 11.46184082 -3.41769409 10.55664062 C-3.34453835 4.58193303 -3.34453835 4.58193303 -1.4747467 1.42381287 C-0.98808029 0.95395462 -0.50141388 0.48409637 0 0 Z " fill="#595757" transform="translate(124,41)"/>
<path d="M0 0 C0.99 0.33 1.98 0.66 3 1 C2.979375 2.11375 2.95875 3.2275 2.9375 4.375 C2.73619282 7.83215921 2.73619282 7.83215921 4 10 C4.09061856 11.72606453 4.11754501 13.45564507 4.11352539 15.18408203 C4.11341209 16.80553635 4.11341209 16.80553635 4.11329651 18.45974731 C4.10813522 19.63060883 4.10297394 20.80147034 4.09765625 22.0078125 C4.0962413 23.20356903 4.09482635 24.39932556 4.09336853 25.63131714 C4.08775663 29.46256987 4.07520208 33.29376484 4.0625 37.125 C4.05748653 39.71744707 4.05292336 42.30989506 4.04882812 44.90234375 C4.03778333 51.26824898 4.02103359 57.63412037 4 64 C3.01 64.495 3.01 64.495 2 65 C1.67 65.99 1.34 66.98 1 68 C0.34 68 -0.32 68 -1 68 C-1.02312611 59.28155997 -1.04091646 50.56313044 -1.05181217 41.84466648 C-1.05704041 37.79674258 -1.06413699 33.74883959 -1.07543945 29.70092773 C-1.08627043 25.79764029 -1.09227728 21.89437301 -1.09487724 17.9910717 C-1.09673111 16.49866353 -1.100351 15.00625652 -1.10573006 13.51385689 C-1.11294331 11.43051861 -1.11399083 9.34726469 -1.11352539 7.26391602 C-1.115746 6.07588882 -1.11796661 4.88786163 -1.12025452 3.66383362 C-1 1 -1 1 0 0 Z " fill="#C3BFBC" transform="translate(154,63)"/>
<path d="M0 0 C0 3.63 0 7.26 0 11 C-0.33 11 -0.66 11 -1 11 C-1 8.03 -1 5.06 -1 2 C-1.99 2 -2.98 2 -4 2 C-3.83669724 2.57804256 -3.67339449 3.15608513 -3.50514317 3.75164413 C-2.67912432 7.42819453 -2.9209099 11.15143349 -2.97827148 14.89941406 C-2.98787903 15.79732666 -2.99748657 16.69523926 -3.00738525 17.62036133 C-3.04034177 20.58552982 -3.08068696 23.55054945 -3.12109375 26.515625 C-3.14539813 28.57256548 -3.16924153 30.62951145 -3.19264221 32.6864624 C-3.25545145 38.09849306 -3.32452713 43.51042636 -3.39489746 48.92236328 C-3.46560939 54.44559294 -3.53040926 59.9688916 -3.59570312 65.4921875 C-3.72467475 76.32820082 -3.860265 87.1641205 -4 98 C-4.99 98 -5.98 98 -7 98 C-7 65.99 -7 33.98 -7 1 C-5 0 -5 0 0 0 Z " fill="#B7B5B4" transform="translate(71,42)"/>
<path d="M0 0 C1.98 0.495 1.98 0.495 4 1 C4 26.41 4 51.82 4 78 C3.67 78 3.34 78 3 78 C1.7208566 73.03231455 1.79285892 68.07166085 1.71875 62.9765625 C1.70034058 61.99819427 1.68193115 61.01982605 1.66296387 60.0118103 C1.60437381 56.88293322 1.55159546 53.75399971 1.5 50.625 C2.22167509 29.54396949 2.22167509 29.54396949 -1 9 C-1.17812624 6.3071504 -1.08727698 3.70558632 -1 1 C-0.67 0.67 -0.34 0.34 0 0 Z " fill="#B1AFAC" transform="translate(157,61)"/>
<path d="M0 0 C3.37462715 0.54723683 5.08235 1.0549 8 3 C8 3.66 8 4.32 8 5 C8.99 5.33 9.98 5.66 11 6 C11.99 7.485 11.99 7.485 13 9 C11.02 9.66 9.04 10.32 7 11 C7 11.99 7 12.98 7 14 C7.99 14 8.98 14 10 14 C10 14.66 10 15.32 10 16 C4.25 14.125 4.25 14.125 2 13 C1.67 37.09 1.34 61.18 1 86 C0.67 86 0.34 86 0 86 C0 60.59 0 35.18 0 9 C0.99 9 1.98 9 3 9 C2.67 7.68 2.34 6.36 2 5 C1.34 5 0.68 5 0 5 C0 3.35 0 1.7 0 0 Z " fill="#A5A4A3" transform="translate(131,45)"/>
<path d="M0 0 C0.33 0 0.66 0 1 0 C1.15480447 8.26758386 1.30296738 16.5352502 1.4429636 24.80309677 C1.50819159 28.64337368 1.57559227 32.48358531 1.64819336 36.32373047 C1.71834886 40.03895578 1.78249029 43.75424324 1.84269524 47.46964264 C1.86652289 48.87763399 1.89241285 50.2855922 1.92053413 51.69350433 C2.05265971 58.37136498 2.10313051 65.03983356 1.75756836 71.71191406 C1.71006943 72.64038147 1.6625705 73.56884888 1.6136322 74.52545166 C0.82070834 77.72301598 -0.42773567 78.98675317 -3 81 C-5.71420199 81.38602568 -8.01395318 81.53873288 -10.72265625 81.49609375 C-11.83549232 81.4982766 -11.83549232 81.4982766 -12.97080994 81.50050354 C-14.53502338 81.49884733 -16.09925358 81.48731695 -17.66333008 81.46655273 C-20.05815707 81.43755259 -22.45077542 81.44595644 -24.84570312 81.45898438 C-26.36719826 81.45274788 -27.88868641 81.44435762 -29.41015625 81.43359375 C-30.48367088 81.43799721 -30.48367088 81.43799721 -31.57887268 81.44248962 C-36.55003078 81.34803481 -36.55003078 81.34803481 -38.97436523 79.47290039 C-39.48205444 78.7438147 -39.48205444 78.7438147 -40 78 C-27.3141797 77.79899228 -14.66894665 78.41292532 -2 79 C-0.81683088 75.25663925 -0.82724089 71.54760131 -0.79467773 67.66113281 C-0.78477814 66.92903091 -0.77487854 66.19692902 -0.76467896 65.44264221 C-0.7331618 63.02950239 -0.70834536 60.61634291 -0.68359375 58.203125 C-0.66301577 56.52731828 -0.64201907 54.85151666 -0.62062073 53.17572021 C-0.56548726 48.76991913 -0.51603958 44.36407188 -0.46777344 39.95819092 C-0.41749464 35.46036685 -0.36184189 30.96260963 -0.30664062 26.46484375 C-0.1991658 17.64328631 -0.0976972 8.82167076 0 0 Z " fill="#363635" transform="translate(162,63)"/>
<path d="M0 0 C0.33 0 0.66 0 1 0 C1.33 7.26 1.66 14.52 2 22 C2.33 22 2.66 22 3 22 C3.33 14.74 3.66 7.48 4 0 C4.33 0 4.66 0 5 0 C5 15.51 5 31.02 5 47 C4.01 47.495 4.01 47.495 3 48 C2.67 48.99 2.34 49.98 2 51 C1.34 51 0.68 51 0 51 C0 34.17 0 17.34 0 0 Z " fill="#C8C6C3" transform="translate(153,80)"/>
<path d="M0 0 C1.19712049 4.26362918 1.13242506 8.41010935 1.11352539 12.80761719 C1.11367142 13.69577621 1.11381744 14.58393524 1.1139679 15.49900818 C1.1132718 18.43165538 1.10549357 21.3642389 1.09765625 24.296875 C1.09579099 26.3314002 1.0943676 28.36592585 1.09336853 30.40045166 C1.08955184 35.75324749 1.07972876 41.10601616 1.06866455 46.45880127 C1.05843222 51.92174919 1.053867 57.38470151 1.04882812 62.84765625 C1.03810576 73.5651161 1.02103948 84.28255579 1 95 C3.97 95 6.94 95 10 95 C7 97 7 97 3.375 96.6875 C0 96 0 96 -1 95 C-1.11985606 92.28294465 -1.17546188 89.59016798 -1.18945312 86.87182617 C-1.19774643 86.01979111 -1.20603973 85.16775604 -1.21458435 84.28990173 C-1.23202687 82.43305031 -1.24718206 80.57617636 -1.26036072 78.71928978 C-1.28132958 75.78181999 -1.30835892 72.84446269 -1.33703613 69.90705872 C-1.39684665 63.66724881 -1.44891713 57.42738664 -1.5 51.1875 C-1.55920208 43.96914435 -1.62154412 36.75084351 -1.69187927 29.53258705 C-1.71846435 26.63658516 -1.73927644 23.74057788 -1.7598877 20.8445282 C-1.77649353 19.06846863 -1.79336561 17.29241152 -1.81054688 15.51635742 C-1.81473129 14.70944458 -1.81891571 13.90253174 -1.82322693 13.07116699 C-1.86269376 9.54956819 -2.0561745 6.38938424 -3 3 C-2.01 2.67 -1.02 2.34 0 2 C0 1.34 0 0.68 0 0 Z " fill="#211F20" transform="translate(61,46)"/>
<path d="M0 0 C0.99 0.33 1.98 0.66 3 1 C2.34 1 1.68 1 1 1 C0.34 2.65 -0.32 4.3 -1 6 C-0.34 6 0.32 6 1 6 C0.34 30.09 -0.32 54.18 -1 79 C-1.33 79 -1.66 79 -2 79 C-2.04630347 69.1426629 -2.08185907 59.2853516 -2.10362434 49.42792797 C-2.11406962 44.85092012 -2.12824237 40.27398657 -2.15087891 35.69702148 C-2.17258079 31.28149496 -2.18456302 26.86603999 -2.18975449 22.45046425 C-2.19345502 20.76432481 -2.20068108 19.07818936 -2.21146011 17.39208031 C-2.22593983 15.03367976 -2.22797943 12.67557638 -2.22705078 10.31713867 C-2.23424133 9.61726837 -2.24143188 8.91739807 -2.24884033 8.19631958 C-2.23330228 4.55896435 -2.07949842 3.11924762 0 0 Z " fill="#B4B2B0" transform="translate(125,42)"/>
<path d="M0 0 C0.99 0 1.98 0 3 0 C2.34 27.72 1.68 55.44 1 84 C0.67 84 0.34 84 0 84 C0 56.28 0 28.56 0 0 Z " fill="#D4D2D0" transform="translate(67,44)"/>
<path d="M0 0 C0.33 0 0.66 0 1 0 C1 28.71 1 57.42 1 87 C-0.65 86.67 -2.3 86.34 -4 86 C-3.8864371 84.35333797 -3.75882619 82.70763918 -3.625 81.0625 C-3.55539063 80.14597656 -3.48578125 79.22945313 -3.4140625 78.28515625 C-3.20910156 77.15400391 -3.20910156 77.15400391 -3 76 C-2.01 75.505 -2.01 75.505 -1 75 C-0.67 50.25 -0.34 25.5 0 0 Z " fill="#D3D2D1" transform="translate(70,53)"/>
<path d="M0 0 C0.99 0.33 1.98 0.66 3 1 C3.04938149 5.37823917 3.0857104 9.75633146 3.10986328 14.13476562 C3.11993043 15.6247032 3.13358518 17.11462097 3.15087891 18.60449219 C3.17509653 20.74419028 3.18647564 22.88362753 3.1953125 25.0234375 C3.20578613 26.31169434 3.21625977 27.59995117 3.22705078 28.92724609 C3 32 3 32 1 34 C-0.47905238 31.04189524 -0.12190903 28.0452845 -0.09765625 24.8046875 C-0.0962413 24.09724396 -0.09482635 23.38980042 -0.09336853 22.66091919 C-0.087766 20.39890331 -0.07521318 18.13698602 -0.0625 15.875 C-0.05748532 14.34244935 -0.05292236 12.80989714 -0.04882812 11.27734375 C-0.03779577 7.51819112 -0.02052952 3.75911228 0 0 Z " fill="#C4C4C4" transform="translate(128,88)"/>
<path d="M0 0 C2.475 0.99 2.475 0.99 5 2 C4.01 2.495 4.01 2.495 3 3 C2.34 2.67 1.68 2.34 1 2 C0.67 26.09 0.34 50.18 0 75 C-0.33 75 -0.66 75 -1 75 C-1.02312465 65.36887288 -1.04091571 55.73775526 -1.05181217 46.10660648 C-1.05704074 41.63494451 -1.06413789 37.16330147 -1.07543945 32.69165039 C-1.08626929 28.37988027 -1.09227704 24.06812841 -1.09487724 19.75634575 C-1.09673132 18.10763702 -1.1003516 16.45892934 -1.10573006 14.81022835 C-1.11294178 12.50896128 -1.11399089 10.2077706 -1.11352539 7.90649414 C-1.115746 6.5941127 -1.11796661 5.28173126 -1.12025452 3.92958069 C-1 1 -1 1 0 0 Z " fill="#989898" transform="translate(132,56)"/>
<path d="M0 0 C0 0.66 0 1.32 0 2 C1.32 2 2.64 2 4 2 C4 1.34 4 0.68 4 0 C4.99 0.33 5.98 0.66 7 1 C6.67 1.66 6.34 2.32 6 3 C-19.9701529 3.20638953 -19.9701529 3.20638953 -31 2 C-31 1.67 -31 1.34 -31 1 C-20.43755622 -0.43440595 -10.63038081 -1.38983777 0 0 Z " fill="#959492" transform="translate(154,139)"/>
<path d="M0 0 C1 3 1 3 1 7 C1.66 7.33 2.32 7.66 3 8 C3.33 8.66 3.66 9.32 4 10 C4.66 9.67 5.32 9.34 6 9 C7.67654729 9.27942455 9.34608154 9.60828247 11 10 C11 10.33 11 10.66 11 11 C5.68833136 12.32791716 0.24118425 12.74706142 -5 11 C-5 10.34 -5 9.68 -5 9 C-4.01 9 -3.02 9 -2 9 C-2.226875 8.071875 -2.45375 7.14375 -2.6875 6.1875 C-3 3 -3 3 -1.5625 1.125 C-1.046875 0.75375 -0.53125 0.3825 0 0 Z " fill="#B7B6B5" transform="translate(130,128)"/>
<path d="M0 0 C0.33 0.99 0.66 1.98 1 3 C0.34 2.67 -0.32 2.34 -1 2 C-0.67 1.34 -0.34 0.68 0 0 Z M1 4 C1 5.32 1 6.64 1 8 C-0.32 8 -1.64 8 -3 8 C-3 7.34 -3 6.68 -3 6 C-4.03060547 6.03480469 -4.03060547 6.03480469 -5.08203125 6.0703125 C-6.43361328 6.09738281 -6.43361328 6.09738281 -7.8125 6.125 C-8.70582031 6.14820313 -9.59914062 6.17140625 -10.51953125 6.1953125 C-13 6 -13 6 -16 4 C-14.10507254 3.80355616 -12.20899097 3.61822712 -10.3125 3.4375 C-8.72888672 3.28087891 -8.72888672 3.28087891 -7.11328125 3.12109375 C-4.18573914 3.00722448 -1.82868856 3.29151585 1 4 Z " fill="#B6B5B3" transform="translate(157,133)"/>
<path d="M0 0 C0 0.66 0 1.32 0 2 C6.6 2 13.2 2 20 2 C20 2.33 20 2.66 20 3 C17.25091555 3.36314325 14.50116549 3.71580841 11.75 4.0625 C10.97269531 4.16626953 10.19539062 4.27003906 9.39453125 4.37695312 C8.64042969 4.47041016 7.88632813 4.56386719 7.109375 4.66015625 C6.41811523 4.74918213 5.72685547 4.83820801 5.01464844 4.92993164 C2.82569152 5.00606235 1.08994187 4.6249336 -1 4 C-1 3.34 -1 2.68 -1 2 C-1.99 1.67 -2.98 1.34 -4 1 C-2 0 -2 0 0 0 Z " fill="#C9C8C6" transform="translate(132,131)"/>
<path d="M0 0 C0.83805176 0.15847412 1.67610352 0.31694824 2.53955078 0.48022461 C6.17675708 1.02654973 9.69123534 1.21007706 13.3671875 1.31640625 C14.04677521 1.33718735 14.72636292 1.35796844 15.42654419 1.37937927 C17.57593666 1.4442363 19.7254407 1.50345941 21.875 1.5625 C23.3411569 1.60574612 24.80730294 1.64936225 26.2734375 1.69335938 C29.84884275 1.79985104 33.42437037 1.90129409 37 2 C37 2.33 37 2.66 37 3 C32.21284377 3.07415168 27.42602173 3.12860204 22.63842773 3.16479492 C21.00978777 3.17988243 19.38118844 3.20035506 17.75268555 3.22631836 C15.41184465 3.26270449 13.07154081 3.2797262 10.73046875 3.29296875 C9.63813179 3.31619453 9.63813179 3.31619453 8.52372742 3.33988953 C3.44615804 3.34158031 3.44615804 3.34158031 1.0168457 1.48168945 C0.51350708 0.74825317 0.51350708 0.74825317 0 0 Z " fill="#252423" transform="translate(122,141)"/>
<path d="M0 0 C2.475 0.99 2.475 0.99 5 2 C4.01 2.495 4.01 2.495 3 3 C2.34 2.67 1.68 2.34 1 2 C0.67 7.61 0.34 13.22 0 19 C-0.33 19 -0.66 19 -1 19 C-1.02683987 16.02077407 -1.04676037 13.04178705 -1.0625 10.0625 C-1.07087891 9.21236328 -1.07925781 8.36222656 -1.08789062 7.48632812 C-1.09111328 6.67744141 -1.09433594 5.86855469 -1.09765625 5.03515625 C-1.10289307 4.2862915 -1.10812988 3.53742676 -1.11352539 2.76586914 C-1 1 -1 1 0 0 Z " fill="#6A6968" transform="translate(132,56)"/>
<path d="M0 0 C1.30062431 3.81516464 0.89369853 7.27561763 0.5625 11.25 C0.46066406 12.51328125 0.35882813 13.7765625 0.25390625 15.078125 C0.17011719 16.04234375 0.08632813 17.0065625 0 18 C-0.33 18 -0.66 18 -1 18 C-1.06058594 17.25234375 -1.12117188 16.5046875 -1.18359375 15.734375 C-1.26738281 14.74953125 -1.35117187 13.7646875 -1.4375 12.75 C-1.51871094 11.77546875 -1.59992187 10.8009375 -1.68359375 9.796875 C-1.95074584 7.43538247 -2.35371968 5.28098935 -3 3 C-2.01 2.67 -1.02 2.34 0 2 C0 1.34 0 0.68 0 0 Z " fill="#272626" transform="translate(61,46)"/>
<path d="M0 0 C0.33 0.99 0.66 1.98 1 3 C0.34 2.67 -0.32 2.34 -1 2 C-0.67 1.34 -0.34 0.68 0 0 Z M-2 3 C-1.01 3.33 -0.02 3.66 1 4 C1 5.32 1 6.64 1 8 C-0.32 8 -1.64 8 -3 8 C-3.33 7.01 -3.66 6.02 -4 5 C-3.34 4.34 -2.68 3.68 -2 3 Z " fill="#B0AFAD" transform="translate(157,133)"/>
<path d="M0 0 C1.98 0 3.96 0 6 0 C5.34 1.32 4.68 2.64 4 4 C2.68 3.67 1.36 3.34 0 3 C0 2.01 0 1.02 0 0 Z " fill="#C8C8C8" transform="translate(93,44)"/>
</svg>
