<?xml version="1.0" encoding="UTF-8" standalone="no"?>
<svg
   xmlns:dc="http://purl.org/dc/elements/1.1/"
   xmlns:cc="http://creativecommons.org/ns#"
   xmlns:rdf="http://www.w3.org/1999/02/22-rdf-syntax-ns#"
   xmlns:svg="http://www.w3.org/2000/svg"
   xmlns="http://www.w3.org/2000/svg"
   xmlns:sodipodi="http://sodipodi.sourceforge.net/DTD/sodipodi-0.dtd"
   xmlns:inkscape="http://www.inkscape.org/namespaces/inkscape"
   inkscape:version="1.0 (4035a4fb49, 2020-05-01)"
   sodipodi:docname="home-white.svg"
   id="svg4"
   version="1.1"
   height="96px"
   width="96px"
   viewBox="0 0 48 48">
  <metadata
     id="metadata10">
    <rdf:RDF>
      <cc:Work
         rdf:about="">
        <dc:format>image/svg+xml</dc:format>
        <dc:type
           rdf:resource="http://purl.org/dc/dcmitype/StillImage" />
      </cc:Work>
    </rdf:RDF>
  </metadata>
  <defs
     id="defs8" />
  <sodipodi:namedview
     inkscape:current-layer="svg4"
     inkscape:window-maximized="1"
     inkscape:window-y="-8"
     inkscape:window-x="1992"
     inkscape:cy="48"
     inkscape:cx="48"
     inkscape:zoom="9.2708333"
     showgrid="false"
     id="namedview6"
     inkscape:window-height="1057"
     inkscape:window-width="1840"
     inkscape:pageshadow="2"
     inkscape:pageopacity="0"
     guidetolerance="10"
     gridtolerance="10"
     objecttolerance="10"
     borderopacity="1"
     bordercolor="#666666"
     pagecolor="#ffffff" />
  <path
     id="path2"
     d="M 23.951172 4 A 1.50015 1.50015 0 0 0 23.072266 4.3222656 L 8.859375 15.519531 C 7.0554772 16.941163 6 19.113506 6 21.410156 L 6 40.5 C 6 41.863594 7.1364058 43 8.5 43 L 18.5 43 C 19.863594 43 21 41.863594 21 40.5 L 21 30.5 C 21 30.204955 21.204955 30 21.5 30 L 26.5 30 C 26.795045 30 27 30.204955 27 30.5 L 27 40.5 C 27 41.863594 28.136406 43 29.5 43 L 39.5 43 C 40.863594 43 42 41.863594 42 40.5 L 42 21.410156 C 42 19.113506 40.944523 16.941163 39.140625 15.519531 L 24.927734 4.3222656 A 1.50015 1.50015 0 0 0 23.951172 4 z M 24 7.4101562 L 37.285156 17.876953 C 38.369258 18.731322 39 20.030807 39 21.410156 L 39 40 L 30 40 L 30 30.5 C 30 28.585045 28.414955 27 26.5 27 L 21.5 27 C 19.585045 27 18 28.585045 18 30.5 L 18 40 L 9 40 L 9 21.410156 C 9 20.030807 9.6307412 18.731322 10.714844 17.876953 L 24 7.4101562 z" />
  <path
     transform="scale(0.5)"
     id="path12"
     d="M 16.083595,85.851872 C 14.861685,85.611903 13.557,84.698019 12.829574,83.57255 c -0.818572,-1.26649 -0.763757,0.439946 -0.72169,-22.466932 0.03478,-18.940885 0.0517,-20.551616 0.223175,-21.249438 0.746922,-3.039644 2.060828,-5.483299 3.999389,-7.438225 0.684069,-0.689843 5.379562,-4.452087 15.479834,-12.403152 7.973857,-6.277125 14.672284,-11.5160099 14.885393,-11.641968 0.568384,-0.3359434 2.050314,-0.3299967 2.626514,0.01054 0.222933,0.131755 6.92136,5.369914 14.885393,11.640354 10.148399,7.99029 14.773794,11.697497 15.46197,12.392614 2.104299,2.125517 3.517914,4.8941 4.038261,7.908982 0.204671,1.185863 0.211288,1.853582 0.211288,21.320728 0,19.420748 -0.0069,20.118603 -0.204357,20.753124 -0.540623,1.737027 -2.092652,3.11978 -3.882743,3.459263 -0.369878,0.07015 -4.323061,0.109521 -10.893915,0.108505 -11.22706,-0.0017 -11.084953,0.0054 -12.215054,-0.60972 -0.743843,-0.40485 -1.544962,-1.17843 -1.974491,-1.906616 -0.722584,-1.225007 -0.708092,-0.970744 -0.708092,-12.422814 0,-10.630335 0.0015,-10.591251 -0.422113,-10.9165 -0.247039,-0.18967 -10.989633,-0.18967 -11.236672,0 -0.423573,0.325209 -0.422065,0.286263 -0.423708,10.937794 -0.0017,11.277901 0.0075,11.095877 -0.621489,12.264611 -0.161574,0.300231 -0.561995,0.814099 -0.889826,1.14193 -0.327831,0.32783 -0.841699,0.728252 -1.141929,0.889826 -1.171884,0.630667 -0.972871,0.620834 -12.33842,0.60967 -5.724944,-0.0056 -10.622157,-0.05209 -10.882697,-0.103254 z m 19.967089,-15.928276 0.03107,-10.11236 0.250935,-0.755056 c 0.732664,-2.204555 2.431867,-3.934438 4.579007,-4.661686 l 0.88606,-0.300112 H 48 54.202247 l 0.88606,0.300112 c 2.126848,0.720374 3.761821,2.355202 4.516229,4.515827 l 0.314565,0.900915 0.03064,10.11236 0.03064,10.112359 h 9.059838 9.059838 L 78.06932,60.755056 78.038579,41.474157 77.795103,40.611236 C 77.336418,38.98558 76.427408,37.3941 75.380666,36.384078 74.907042,35.927068 48.105937,14.776902 48.002176,14.778266 c -0.105162,0.0014 -26.912617,21.154263 -27.382841,21.6069 -1.045052,1.005962 -1.955517,2.599581 -2.414438,4.22607 l -0.243476,0.862921 -0.03074,19.280899 -0.03074,19.280899 h 9.059838 9.059838 z"
     style="fill:#ffffff;stroke-width:0.107865" />
</svg>
