<?xml version="1.0" encoding="UTF-8"?>
<svg version="1.1" xmlns="http://www.w3.org/2000/svg" width="184" height="208">
<path d="M0 0 C3.52691615 0.9785803 6.33019435 2.34073647 9.52368164 4.12817383 C10.1026268 4.45021286 10.68157196 4.77225189 11.27806091 5.10404968 C12.49471332 5.78323147 13.70896839 6.46672394 14.92089844 7.15429688 C16.76265856 8.19835817 18.61204034 9.22772409 20.46313477 10.25512695 C23.73959644 12.09066291 27.00763674 13.92171906 30.20727539 15.88989258 C31.13918701 16.3980249 32.07109863 16.90615723 33.03125 17.4296875 C36.54850025 21.40627572 36.11484141 25.74411388 36.20727539 30.88989258 C36.23259338 31.89484772 36.25791138 32.89980286 36.28399658 33.93521118 C36.339051 37.19825405 36.34596391 40.4584381 36.34008789 43.72192383 C36.34104462 44.91613449 36.34200134 46.11034515 36.34298706 47.34074402 C36.3436637 49.8526515 36.34184564 52.36456078 36.33764648 54.87646484 C36.33230527 58.68111179 36.33760185 62.48563994 36.34399414 66.2902832 C36.34333299 68.74666367 36.34205107 71.20304406 36.34008789 73.65942383 C36.34211212 74.77758987 36.34413635 75.89575592 36.34622192 77.04780579 C36.32302312 85.03008319 35.86289778 92.93545932 35.20727539 100.88989258 C30.15376727 101.05775919 25.10009906 101.21829197 20.04614258 101.37207031 C18.32732902 101.42539827 16.60857611 101.48072022 14.88989258 101.53808594 C12.41769485 101.62025436 9.94536684 101.69521987 7.47290039 101.76879883 C6.70608948 101.79583389 5.93927856 101.82286896 5.14923096 101.85072327 C-1.72291511 102.04241674 -1.72291511 102.04241674 -4.79272461 100.88989258 C-6.12540483 96.89185193 -5.9485178 93.04538254 -5.95385742 88.8762207 C-5.95882233 87.9540123 -5.96378723 87.03180389 -5.96890259 86.08164978 C-5.98351959 83.02813983 -5.99032435 79.97468178 -5.99584961 76.92114258 C-6.00160006 74.80269367 -6.0073578 72.68424477 -6.01312256 70.5657959 C-6.02363027 66.12385821 -6.0294749 61.68193861 -6.03295898 57.23999023 C-6.03845279 51.53996795 -6.06250073 45.84018345 -6.09093094 40.1402359 C-6.1095228 35.76514986 -6.114761 31.3901216 -6.11629486 27.01499939 C-6.11932815 24.9129862 -6.1273793 22.81097419 -6.14048004 20.70899963 C-6.15747344 17.77366824 -6.1556771 14.83892463 -6.14916992 11.90356445 C-6.1583847 11.03074326 -6.16759949 10.15792206 -6.17709351 9.25865173 C-6.13581912 3.3360753 -6.13581912 3.3360753 -4.44430161 1.13631439 C-2.79272461 -0.11010742 -2.79272461 -0.11010742 0 0 Z " fill="#AFAFAE" transform="translate(106.792724609375,49.110107421875)"/>
<path d="M0 0 C0.15546296 9.67676008 0.30359977 19.35359897 0.4429636 29.03060436 C0.50792793 33.52640515 0.57520217 38.02214406 0.64819336 42.51782227 C1.33089943 84.79579326 1.33089943 84.79579326 0 98 C-1 99 -1 99 -3.06640625 99.09765625 C-4.30197266 99.08025391 -4.30197266 99.08025391 -5.5625 99.0625 C-6.80193359 99.04896484 -6.80193359 99.04896484 -8.06640625 99.03515625 C-9.02353516 99.01775391 -9.02353516 99.01775391 -10 99 C-11.11833927 94.44218085 -11.22744181 89.91695238 -11.33227539 85.25 C-11.3664003 83.94421997 -11.3664003 83.94421997 -11.4012146 82.61206055 C-11.60219435 74.62387373 -11.75209803 66.63431341 -11.88778019 58.64477539 C-11.97891749 53.28056357 -12.08593514 47.91773025 -12.23120117 42.5546875 C-12.37160511 37.36206494 -12.4726913 32.1700666 -12.54577446 26.97607422 C-12.58025394 24.99824155 -12.62864727 23.02060064 -12.69120979 21.04345703 C-12.77594181 18.27811886 -12.81009643 15.51644914 -12.83227539 12.75 C-12.86881729 11.93426514 -12.90535919 11.11853027 -12.94300842 10.27807617 C-12.92452874 6.80574445 -12.83258706 4.82706061 -10.30319023 2.31445312 C-6.59127203 -0.19605174 -4.40238372 -1.5661571 0 0 Z " fill="#A6A5A6" transform="translate(52,51)"/>
<path d="M0 0 C2.64670735 2.64670735 2.24081403 4.57999312 2.25994873 8.18087769 C2.25151947 9.48147629 2.25151947 9.48147629 2.24291992 10.80834961 C2.24481827 11.72065842 2.24671661 12.63296722 2.24867249 13.57292175 C2.25238797 16.59948218 2.24166426 19.62580451 2.23046875 22.65234375 C2.22927716 24.74980135 2.22882374 26.84725949 2.2290802 28.94471741 C2.22751395 33.34558441 2.21921409 37.74637022 2.20581055 42.1472168 C2.18883098 47.7944988 2.18499585 53.4416914 2.18575573 59.08899593 C2.18548404 63.42205156 2.18000281 67.75508756 2.17275429 72.08813667 C2.16956701 74.17059747 2.16760007 76.2530605 2.16686058 78.33552361 C2.16469707 81.24447303 2.1559522 84.1533269 2.14526367 87.06225586 C2.14571686 87.92729736 2.14617004 88.79233887 2.14663696 89.68359375 C2.12857781 93.03784107 2.06806112 95.79581663 1 99 C-4.625 100.125 -4.625 100.125 -8 99 C-9.7026057 95.59478859 -9.12864821 91.70607881 -9.11352539 87.96044922 C-9.11367142 87.02381439 -9.11381744 86.08717957 -9.1139679 85.12216187 C-9.11326944 82.01631378 -9.10548015 78.91052515 -9.09765625 75.8046875 C-9.09579183 73.65520256 -9.09436804 71.5057172 -9.09336853 69.35623169 C-9.08954522 63.69104851 -9.07971651 58.02589085 -9.06866455 52.36071777 C-9.05844644 46.58292994 -9.05387005 40.805138 -9.04882812 35.02734375 C-9.03809409 23.6848846 -9.02101989 12.34244442 -9 1 C-5.75778445 -0.08073852 -3.39597063 -0.21676408 0 0 Z " fill="#868485" transform="translate(81,50)"/>
<path d="M0 0 C1.98 0 3.96 0 6 0 C6 31.68 6 63.36 6 96 C4.02 96 2.04 96 0 96 C0 64.32 0 32.64 0 0 Z " fill="#D6D3D4" transform="translate(73,52)"/>
<path d="M0 0 C0 32.01 0 64.02 0 97 C-2.31 97 -4.62 97 -7 97 C-6.84644043 96.21133545 -6.69288086 95.4226709 -6.53466797 94.61010742 C-5.87411815 90.15003886 -5.63558805 85.74007608 -5.4453125 81.23828125 C-5.40326691 80.24959549 -5.36122131 79.26090973 -5.31790161 78.24226379 C-4.81728591 65.0342378 -4.84887302 51.81914567 -4.86962891 38.60375977 C-4.8754377 34.86829091 -4.87195856 31.13289219 -4.86605644 27.39742565 C-4.86245758 24.49361125 -4.86358436 21.5898138 -4.86618423 18.68599892 C-4.86684966 17.30606388 -4.86603854 15.9261273 -4.86370468 14.54619408 C-4.86117745 12.64041548 -4.86570938 10.73463141 -4.87060547 8.82885742 C-4.87140106 7.74795334 -4.87219666 6.66704926 -4.87301636 5.5533905 C-4.82795722 3.0088894 -4.82795722 3.0088894 -6 1 C-3 0 -3 0 0 0 Z " fill="#D2D2D2" transform="translate(51,52)"/>
<path d="M0 0 C2.1875 0.3125 2.1875 0.3125 4 1 C3.01 1.495 3.01 1.495 2 2 C-0.84644658 11.83674274 -0.35253261 22.07429228 -0.4140625 32.2265625 C-0.43279705 34.18525996 -0.45237213 36.14394954 -0.4727478 38.10263062 C-0.52383353 43.22840711 -0.56358462 48.35420971 -0.60089111 53.48010254 C-0.64107932 58.72247651 -0.69210371 63.96474413 -0.7421875 69.20703125 C-0.83866752 79.47128648 -0.92215779 89.73558649 -1 100 C5.93 100 12.86 100 20 100 C20 100.33 20 100.66 20 101 C12.98441385 101.5988915 6.04321257 102.13810221 -1 102 C-2.58666321 99.18414278 -3.2511372 97.15946711 -3.26069641 93.93260193 C-3.26778122 93.13209412 -3.27486603 92.3315863 -3.28216553 91.50682068 C-3.27968811 90.63759476 -3.27721069 89.76836884 -3.2746582 88.87280273 C-3.27976913 87.9504483 -3.28488007 87.02809387 -3.29014587 86.07778931 C-3.30404397 83.0296581 -3.30308529 79.98175287 -3.30078125 76.93359375 C-3.30466732 74.81657324 -3.3090018 72.69955351 -3.31376648 70.58253479 C-3.32122862 66.1465502 -3.32093689 61.71064521 -3.31567383 57.2746582 C-3.30987131 51.58248977 -3.32682922 45.89064589 -3.3500185 40.19853115 C-3.36472766 35.82772407 -3.36563153 31.45699573 -3.36250877 27.08616829 C-3.36302315 24.9869529 -3.36828249 22.88773324 -3.37832069 20.78854179 C-3.39061668 17.85807856 -3.38393522 14.92825524 -3.37231445 11.99780273 C-3.37995819 11.12655258 -3.38760193 10.25530243 -3.39547729 9.35765076 C-3.34341797 3.43731375 -3.34341797 3.43731375 -1.61332989 1.23419285 C-1.08093102 0.82690921 -0.54853216 0.41962557 0 0 Z " fill="#666665" transform="translate(104,49)"/>
<path d="M0 0 C0 31.35 0 62.7 0 95 C2.64 95 5.28 95 8 95 C8 95.33 8 95.66 8 96 C5.03 96 2.06 96 -1 96 C-2.15550136 91.37918891 -2.17225981 86.90179631 -2.20532227 82.1706543 C-2.22017166 80.85282707 -2.22017166 80.85282707 -2.23532104 79.50837708 C-2.26682801 76.61368475 -2.29165067 73.71897603 -2.31640625 70.82421875 C-2.33698511 68.81353842 -2.35798183 66.80286233 -2.37937927 64.79219055 C-2.43450368 59.50686072 -2.48395537 54.22149247 -2.53222656 48.93609619 C-2.58251198 43.54004508 -2.63816127 38.14404958 -2.69335938 32.74804688 C-2.80082313 22.16541212 -2.90229418 11.58272903 -3 1 C-1 0 -1 0 0 0 Z " fill="#595859" transform="translate(43,54)"/>
<path d="M0 0 C1.66611905 -0.042721 3.33382885 -0.04063832 5 0 C6 1 6 1 6.08229065 2.75270081 C6.06230515 3.51437057 6.04231964 4.27604034 6.02172852 5.06079102 C6.00163223 5.92160782 5.98153595 6.78242462 5.96083069 7.66932678 C5.93379562 8.60473801 5.90676056 9.54014923 5.87890625 10.50390625 C5.85529526 11.45692123 5.83168427 12.40993622 5.80735779 13.39183044 C5.73051613 16.44886421 5.64658053 19.50565758 5.5625 22.5625 C5.50929982 24.62954536 5.45655931 26.6966026 5.40429688 28.76367188 C5.27487338 33.84260141 5.13908558 38.92132624 5 44 C4.67 44 4.34 44 4 44 C4 30.14 4 16.28 4 2 C2.68 1.67 1.36 1.34 0 1 C0 0.67 0 0.34 0 0 Z " fill="#C1C1C0" transform="translate(135,69)"/>
<path d="M0 0 C0.33 0 0.66 0 1 0 C2.0712828 6.02596573 2.09945415 11.88909517 2 18 C1.34 18.33 0.68 18.66 0 19 C1.65 19.33 3.3 19.66 5 20 C5 20.33 5 20.66 5 21 C2.69 21 0.38 21 -2 21 C-1.01 10.605 -1.01 10.605 0 0 Z " fill="#C8C8C8" transform="translate(46,128)"/>
<path d="M0 0 C1.32 0.66 2.64 1.32 4 2 C4 2.99 4 3.98 4 5 C2.35 5.33 0.7 5.66 -1 6 C-1.33 5.34 -1.66 4.68 -2 4 C-1.0625 1.875 -1.0625 1.875 0 0 Z " fill="#BDBDBB" transform="translate(106,50)"/>
<path d="M0 0 C2.475 0.495 2.475 0.495 5 1 C5 2.32 5 3.64 5 5 C3.35 5 1.7 5 0 5 C0 3.35 0 1.7 0 0 Z " fill="#C3C3C3" transform="translate(136,144)"/>
</svg>
