<?xml version="1.0" encoding="UTF-8" standalone="no"?>
<svg
   xmlns:dc="http://purl.org/dc/elements/1.1/"
   xmlns:cc="http://creativecommons.org/ns#"
   xmlns:rdf="http://www.w3.org/1999/02/22-rdf-syntax-ns#"
   xmlns:svg="http://www.w3.org/2000/svg"
   xmlns="http://www.w3.org/2000/svg"
   xmlns:sodipodi="http://sodipodi.sourceforge.net/DTD/sodipodi-0.dtd"
   xmlns:inkscape="http://www.inkscape.org/namespaces/inkscape"
   inkscape:version="1.0 (4035a4fb49, 2020-05-01)"
   sodipodi:docname="search.svg"
   id="svg4"
   version="1.1"
   height="90px"
   width="90px"
   viewBox="0 0 30 30">
  <metadata
     id="metadata10">
    <rdf:RDF>
      <cc:Work
         rdf:about="">
        <dc:format>image/svg+xml</dc:format>
        <dc:type
           rdf:resource="http://purl.org/dc/dcmitype/StillImage" />
      </cc:Work>
    </rdf:RDF>
  </metadata>
  <defs
     id="defs8" />
  <sodipodi:namedview
     inkscape:current-layer="svg4"
     inkscape:window-maximized="1"
     inkscape:window-y="-8"
     inkscape:window-x="1992"
     inkscape:cy="45"
     inkscape:cx="45"
     inkscape:zoom="9.8888889"
     showgrid="false"
     id="namedview6"
     inkscape:window-height="1057"
     inkscape:window-width="1840"
     inkscape:pageshadow="2"
     inkscape:pageopacity="0"
     guidetolerance="10"
     gridtolerance="10"
     objecttolerance="10"
     borderopacity="1"
     bordercolor="#666666"
     pagecolor="#ffffff" />
  <path
     id="path2"
     d="M 13 3 C 7.4889971 3 3 7.4889971 3 13 C 3 18.511003 7.4889971 23 13 23 C 15.396508 23 17.597385 22.148986 19.322266 20.736328 L 25.292969 26.707031 A 1.0001 1.0001 0 1 0 26.707031 25.292969 L 20.736328 19.322266 C 22.148986 17.597385 23 15.396508 23 13 C 23 7.4889971 18.511003 3 13 3 z M 13 5 C 17.430123 5 21 8.5698774 21 13 C 21 17.430123 17.430123 21 13 21 C 8.5698774 21 5 17.430123 5 13 C 5 8.5698774 8.5698774 5 13 5 z" />
  <path
     transform="scale(0.33333333)"
     id="path12"
     d="m 77.19166,80.860967 c -0.231385,-0.0757 -0.572677,-0.241301 -0.758427,-0.367996 -0.18575,-0.126695 -4.418263,-4.303905 -9.405584,-9.282689 l -9.067857,-9.052334 -1.095065,0.816711 c -4.205305,3.136363 -8.866569,5.018582 -14.241131,5.750574 -1.770051,0.241072 -5.443866,0.242643 -7.264069,0.0031 C 23.421873,67.157342 13.774652,58.962895 10.281683,47.426966 9.4658327,44.732526 9.0995824,42.132356 9.0976333,39.020881 9.0958447,36.165688 9.352813,34.052207 10.00905,31.524771 12.732049,21.037399 21.037399,12.732049 31.524771,10.00905 c 2.528785,-0.6565872 4.685178,-0.9198312 7.508937,-0.9166613 4.822471,0.00541 8.830687,0.9445963 13.196629,3.0921613 9.034628,4.444045 15.163684,13.05344 16.498341,23.174977 0.238246,1.806767 0.235814,5.483832 -0.0048,7.264069 -0.724217,5.35817 -2.612174,10.034916 -5.748763,14.240526 l -0.816258,1.094457 9.153294,9.169588 c 7.324151,7.337187 9.201603,9.270625 9.395044,9.675204 0.481517,1.007084 0.273469,2.321145 -0.508499,3.211758 -0.673273,0.766815 -2.058023,1.156327 -3.007032,0.845838 z M 42.113899,62.839974 c 2.601806,-0.315736 5.446312,-1.200793 7.931682,-2.46791 6.924862,-3.530506 11.811308,-10.485126 12.793162,-18.207831 0.208685,-1.641392 0.211495,-4.65582 0.0058,-6.234896 C 61.505242,25.647062 53.844706,17.422971 43.747312,15.427182 41.831211,15.048458 40.32216,14.930837 38.224719,14.996731 c -3.644258,0.11449 -6.615484,0.851329 -9.882547,2.450788 -2.476087,1.212221 -4.438555,2.619932 -6.399575,4.590521 -1.954655,1.964193 -3.276279,3.82025 -4.505295,6.327129 -1.588272,3.23967 -2.326288,6.222303 -2.440726,9.864011 -0.149191,4.747642 0.939674,9.052012 3.295058,13.025622 3.754468,6.333908 10.184212,10.587211 17.506119,11.580372 1.477738,0.200443 4.683881,0.20288 6.316146,0.0048 z"
     style="fill:#ffffff;stroke-width:0.101124" />
</svg>
